<?xml version="1.0" encoding="utf-8"?>
<!-- Generator: Adobe Illustrator 16.0.0, SVG Export Plug-In . SVG Version: 6.00 Build 0)  -->
<!DOCTYPE svg PUBLIC "-//W3C//DTD SVG 1.1//EN" "http://www.w3.org/Graphics/SVG/1.1/DTD/svg11.dtd">
<svg version="1.1" id="Layer_1" xmlns="http://www.w3.org/2000/svg" xmlns:xlink="http://www.w3.org/1999/xlink" x="0px" y="0px"
	 width="243.547px" height="315px" viewBox="0 0 243.547 315" enable-background="new 0 0 243.547 315" xml:space="preserve">
<g>
	<path d="M194.718,150.999l0.02,0.027c-0.582-0.168-1.182-0.287-1.81-0.287c-10.679,0-19.564,0-30.242,0c0-10.473,0-20.945,0-31.418
		c10.678,0,19.563,0,30.242,0c0.628,0,1.227-0.119,1.809-0.285l-0.019,0.024c13.979-3.543,13.981-21.969,0-25.512l0.02,0.027
		c-0.582-0.167-1.182-0.286-1.81-0.286c-10.636,0-19.48,0-30.118,0c-0.039-3.381-0.061-1.068,0.006-4.447
		c11.985,0.482,24.56-2.278,33.731-10.139c11.19-9.593,14.318-24.537,7.184-37.57c-6.847-12.506-23.206-16.161-35.972-12.365
		c-10.005,2.975-17.241,10.57-22.111,19.537c1.963,3.787,7.726,10.432,23.871,9.512c2.137-3.02,4.914-5.246,8.533-5.449
		c7.667,0.511,2.676,6.883-0.958,8.955c-3.272,1.867-7.048,2.583-10.832,2.665c0.013-0.027,0.024-0.053,0.034-0.079
		c-5.978,0.804-19.853-2.906-24.11-9.069c-4.15-4.209-6.842-9.455-8.303-15.755c-1.158-4.99-0.522-10.597,0.477-15.53
		c0.696-3.438,3.035-6.014,3.686-9.502c2.636-14.142-16.121-18.849-23.536-8.361c-8.091,11.442-8.193,28.646-5.007,41.715
		c3.616,14.83,14.509,27.239,27.711,34.508c-0.251,5.679-0.313,5.681-0.331,11.374c-10.501,0-21.002,0-31.501,0
		c0-8.388,0-9.28,0-17.666c0-10.061,1.756-26.36-12.999-26.36c-14.286,0-13.034,15.412-13.034,25.301c0,8.689,0,9.906,0,18.575
		c-10.208,0-20.416,0-30.621,0c-0.629,0-1.229,0.119-1.81,0.286l0.02-0.027c-13.981,3.542-13.98,21.968,0,25.511l-0.019-0.024
		c0.581,0.167,1.18,0.286,1.809,0.286c10.197,0,20.395,0,30.592,0l-0.035,31.418c-10.186,0-20.373,0-30.558,0
		c-0.629,0-1.229,0.118-1.81,0.287l0.02-0.027c-13.981,3.542-13.98,21.967,0,25.511l-0.019-0.024
		c0.581,0.167,1.18,0.286,1.809,0.286c10.174,0,20.351,0,30.528,0v0.02c-0.199,9.047-0.488,18.316,1.693,27.006
		c4.553,18.152,22.122,29.585,40.068,30.218c18.713,0.661,34.512-13.165,40.069-30.218c2.657-8.155,2.098-17.892,1.759-26.876
		c10.625,0,19.458,0,30.083,0c0.628,0,1.227-0.118,1.809-0.286l-0.019,0.024C208.697,172.966,208.699,154.541,194.718,150.999z
		 M136.652,192.197c-1.089,20.152-30.182,20.152-31.271,0c-0.276-5.11-0.167-10.276-0.076-15.426c10.449,0,20.897,0,31.347,0
		C136.652,181.913,136.652,187.056,136.652,192.197z M136.652,150.739c-10.424,0-20.847,0-31.271,0c0-10.473,0-20.945,0-31.418
		c10.424,0,20.847,0,31.271,0C136.652,129.794,136.652,140.266,136.652,150.739z"/>
	<path d="M42.904,254.736h-9.289c-1.575,0-2.488,0.914-2.488,2.488v20.734c0,1.573-0.828,2.484-2.486,2.484h-7.961
		c-1.576,0-2.489-0.911-2.489-2.484v-20.734c0-1.574-0.913-2.488-2.488-2.488H6.416c-1.657,0-2.487,0.832-2.487,2.488v53.073
		c0,1.577,0.913,2.487,2.487,2.487h9.288c1.659,0,2.488-0.91,2.488-2.487v-13.103c0-1.659,0.913-2.487,2.489-2.487h7.961
		c1.658,0,2.486,0.828,2.486,2.487v13.103c0,1.577,0.914,2.487,2.488,2.487h9.289c1.66,0,2.488-0.91,2.488-2.487v-53.073
		C45.393,255.568,44.564,254.736,42.904,254.736z"/>
	<path d="M73.579,253.243c-18.657,0-20.316,11.113-20.316,21.563v35.161c0,1.821,0.912,2.817,2.487,2.817h9.288
		c1.66,0,2.489-0.828,2.489-2.487v-7.214c0-1.658,0.912-2.488,2.489-2.488h7.131c1.658,0,2.488,0.83,2.488,2.488v7.214
		c0,1.659,0.912,2.487,2.487,2.487h9.288c1.66,0,2.487-0.996,2.487-2.817v-35.161C93.896,264.356,92.238,253.243,73.579,253.243z
		 M79.633,283.761c0,1.659-0.83,2.49-2.488,2.572h-7.131c-1.577,0-2.489-0.913-2.489-2.489v-9.037c0-3.98,0.581-5.974,6.053-5.974
		c5.474,0,6.055,1.993,6.055,5.974V283.761z"/>
	<path d="M115.863,271.489c-0.331-1.907,1.66-3.815,4.893-3.815c3.897,0,6.634,2.155,7.214,5.555
		c0.247,1.66,1.079,2.405,2.737,2.076l9.453-2.076c1.492-0.33,2.239-1.245,2.156-2.736c-0.496-5.972-4.479-17.082-21.561-17.082
		c-18.574,0-20.068,14.678-19.985,17.166c0,19.073,24.96,17.498,26.536,24.545c0.496,2.239-2.488,4.645-6.551,4.645
		c-3.897,0-6.967-2.32-7.297-6.301c-0.165-1.742-1.078-2.489-2.736-2.156l-9.371,2.073c-1.494,0.329-2.239,1.244-2.157,2.735
		c0.416,6.47,4.147,17.913,21.562,17.913c19.654,0,22.475-14.679,22.475-17.165C143.231,277.79,117.024,277.959,115.863,271.489z"/>
	<path d="M188.167,254.736h-9.286c-1.575,0-2.489,0.914-2.489,2.488v20.734c0,1.573-0.829,2.484-2.487,2.484h-7.963
		c-1.574,0-2.486-0.911-2.486-2.484v-20.734c0-1.574-0.913-2.488-2.487-2.488h-9.287c-1.661,0-2.49,0.832-2.49,2.488v53.073
		c0,1.577,0.913,2.487,2.49,2.487h9.287c1.658,0,2.487-0.91,2.487-2.487v-13.103c0-1.659,0.912-2.487,2.486-2.487h7.963
		c1.658,0,2.487,0.828,2.487,2.487v13.103c0,1.577,0.914,2.487,2.489,2.487h9.286c1.66,0,2.489-0.91,2.489-2.487v-53.073
		C190.656,255.568,189.827,254.736,188.167,254.736z"/>
	<path d="M237.585,254.736h-9.287c-1.576,0-2.488,0.832-2.488,2.488v32.506c0,6.387-0.416,10.287-6.552,10.287
		c-6.137,0-6.551-3.9-6.551-10.287v-32.506c0-1.656-0.831-2.488-2.489-2.488h-9.288c-1.573,0-2.486,0.832-2.486,2.488v36.903
		c0,5.473,1.16,20.15,20.814,20.15s20.814-14.678,20.814-20.15v-36.903C240.072,255.568,239.242,254.736,237.585,254.736z"/>
</g>
</svg>
