<?xml version="1.0" encoding="utf-8"?>
<!-- Generator: Adobe Illustrator 16.0.0, SVG Export Plug-In . SVG Version: 6.00 Build 0)  -->
<!DOCTYPE svg PUBLIC "-//W3C//DTD SVG 1.1//EN" "http://www.w3.org/Graphics/SVG/1.1/DTD/svg11.dtd">
<svg version="1.1" id="Layer_1" xmlns="http://www.w3.org/2000/svg" xmlns:xlink="http://www.w3.org/1999/xlink" x="0px" y="0px"
	 width="265px" height="315px" viewBox="0 0 265 315" enable-background="new 0 0 265 315" xml:space="preserve">
<g id="Layer_1_1_">
</g>
<path fill="#EF4141" d="M265,124.307V41.721h-44.197V0h-83.108v41.721h-12.467V0H42.12v41.721H0v82.586h42.12v12.388H0v82.591h42.12
	v6.933c0,48.948,40.077,88.781,89.341,88.781s89.342-39.833,89.342-88.781v-6.933H265v-82.591h-44.197v-12.388H265z M158.472,20.646
	h41.554v21.074h-41.554V20.646z M244.223,157.346v41.294h-44.197v27.578c0,37.567-30.76,68.135-68.564,68.135
	c-37.804,0-68.564-30.567-68.564-68.135v-6.933h41.554v6.933c0,14.801,12.118,26.842,27.01,26.842
	c14.893,0,27.011-12.041,27.011-26.842v-27.578H20.777v-41.294h137.695v-33.039h41.554v33.039H244.223z M125.228,226.219v-6.933
	h12.467v6.933c0,3.412-2.796,6.194-6.233,6.194S125.228,229.631,125.228,226.219z M125.228,136.695v-12.388h12.467v12.388H125.228z
	 M104.451,103.661v33.035H62.897v-33.035h-42.12V62.367h42.12V20.646h41.554v41.721h139.772v41.293H104.451z"/>
</svg>
