<?xml version="1.0" encoding="utf-8"?>
<!-- Generator: Adobe Illustrator 16.0.0, SVG Export Plug-In . SVG Version: 6.00 Build 0)  -->
<!DOCTYPE svg PUBLIC "-//W3C//DTD SVG 1.1//EN" "http://www.w3.org/Graphics/SVG/1.1/DTD/svg11.dtd">
<svg version="1.1" id="Layer_1" xmlns="http://www.w3.org/2000/svg" xmlns:xlink="http://www.w3.org/1999/xlink" x="0px" y="0px"
	 width="243.547px" height="315px" viewBox="0 0 243.547 315" enable-background="new 0 0 243.547 315" xml:space="preserve">
<path fill="none" d="M100.228,205.63c13.69,0,27.379,0,41.069,0c0-13.756,0-27.51,0-41.264c-13.689,0-27.378,0-41.069,0
	C100.228,178.12,100.228,191.874,100.228,205.63z"/>
<path fill="none" d="M100.228,260.079c1.43,26.469,39.642,26.469,41.069,0c0-6.755,0-13.509,0-20.26c-13.722,0-27.445,0-41.168,0
	C100.01,246.58,99.866,253.366,100.228,260.079z"/>
<path fill="#231F20" d="M219.919,130.516l0.025,0.036c-0.763-0.221-1.55-0.376-2.379-0.376c-13.968,0-27.94,0-41.913,0
	c-0.051-4.44-0.078-8.89,0.008-13.326c15.743,0.632,32.257-2.993,44.3-13.317c14.701-12.598,18.809-32.227,9.437-49.342
	c-8.99-16.426-30.478-21.226-47.246-16.24c-13.138,3.906-22.642,13.882-29.037,25.658c2.578,4.976,10.146,13.703,31.351,12.494
	c2.808-3.965,6.452-6.89,11.207-7.156c10.071,0.67,3.513,9.041-1.256,11.761c-4.302,2.452-9.257,3.393-14.226,3.5
	c0.014-0.035,0.03-0.069,0.043-0.104c-7.85,1.056-26.072-3.815-31.665-11.91c-5.452-5.529-8.986-12.418-10.903-20.694
	c-1.522-6.552-0.687-13.916,0.624-20.396c0.914-4.514,3.986-7.898,4.841-12.479c3.46-18.573-21.173-24.756-30.912-10.982
	c-10.626,15.028-10.761,37.622-6.576,54.787c4.748,19.477,19.055,35.775,36.395,45.322c-0.329,7.459-0.412,14.949-0.435,22.424
	c-13.793,0-27.583,0-41.374,0c0-11.016,0-22.032,0-33.046c0-13.212,2.306-34.619-17.071-34.619
	c-18.763,0-17.118,20.241-17.118,33.229c0,11.479,0,22.958,0,34.437c-8.72,0-17.44,0-26.161,0c-12.816,0-32.317-1.341-32.317,17.095
	c0,17.273,19.313,18.388,32.101,17.096c8.599-0.871,17.565-0.44,26.377-0.165c0,13.808,0,27.617,0,41.429c-8.72,0-17.44,0-26.161,0
	c-12.816,0-32.317-1.342-32.317,17.096c0,17.271,19.313,18.387,32.101,17.094c8.558-0.866,17.481-0.443,26.254-0.17
	c-0.261,11.882-0.64,24.054,2.224,35.469c5.98,23.839,29.055,38.856,52.624,39.685c24.579,0.868,45.327-17.292,52.624-39.685
	c3.49-10.714,2.759-23.499,2.312-35.299c13.957,0,27.913,0,41.867,0c0.827,0,1.614-0.156,2.376-0.377l-0.022,0.032
	c18.361-4.651,18.361-28.853,0-33.504l0.025,0.035c-0.763-0.222-1.55-0.376-2.379-0.376c-14.023,0-28.051,0-42.078,0
	c0-13.756,0-27.51,0-41.264c14.027,0,28.055,0,42.078,0c0.827,0,1.614-0.156,2.376-0.377l-0.022,0.031
	C238.28,159.37,238.28,135.169,219.919,130.516z M141.297,260.079c-1.427,26.469-39.639,26.469-41.069,0
	c-0.362-6.713-0.218-13.499-0.099-20.26c13.723,0,27.446,0,41.168,0C141.297,246.57,141.297,253.324,141.297,260.079z
	 M141.297,205.63c-13.689,0-27.378,0-41.069,0c0-13.756,0-27.51,0-41.264c13.69,0,27.379,0,41.069,0
	C141.297,178.12,141.297,191.874,141.297,205.63z"/>
</svg>
