<?xml version="1.0" encoding="utf-8"?>
<!-- Generator: Adobe Illustrator 16.0.0, SVG Export Plug-In . SVG Version: 6.00 Build 0)  -->
<!DOCTYPE svg PUBLIC "-//W3C//DTD SVG 1.1//EN" "http://www.w3.org/Graphics/SVG/1.1/DTD/svg11.dtd">
<svg version="1.1" id="Layer_1" xmlns="http://www.w3.org/2000/svg" xmlns:xlink="http://www.w3.org/1999/xlink" x="0px" y="0px"
	 width="518.337px" height="139.639px" viewBox="0 0 518.337 139.639" enable-background="new 0 0 518.337 139.639"
	 xml:space="preserve">
<path d="M26.941,3.414c3.605,0,5.691,2.088,5.691,5.692v47.433c0,3.604,2.088,5.691,5.693,5.691h18.213
	c3.795,0,5.691-2.088,5.691-5.691V9.106c0-3.604,2.088-5.692,5.693-5.692h21.248c3.795,0,5.691,1.898,5.691,5.692v121.427
	c0,3.604-1.896,5.691-5.691,5.691H67.923c-3.605,0-5.693-2.088-5.693-5.691v-29.979c0-3.793-1.896-5.691-5.691-5.691H38.326
	c-3.605,0-5.693,1.898-5.693,5.691v29.979c0,3.604-1.896,5.691-5.691,5.691H5.691c-3.604,0-5.691-2.088-5.691-5.691V9.106
	c0-3.794,1.897-5.692,5.691-5.692H26.941z"/>
<path d="M197.853,129.773c0,4.174-1.896,6.451-5.691,6.451h-21.25c-3.605,0-5.691-1.898-5.691-5.691v-16.508
	c0-3.795-1.898-5.691-5.691-5.691H143.21c-3.604,0-5.691,1.896-5.691,5.691v16.508c0,3.793-1.896,5.691-5.691,5.691h-21.25
	c-3.604,0-5.691-2.277-5.691-6.451V49.328C104.886,25.424,108.681,0,151.371,0c42.687,0,46.482,25.424,46.482,49.328V129.773z
	 M165.22,49.328c0-9.105-1.328-13.66-13.85-13.66c-12.523,0-13.852,4.555-13.852,13.66V70.01c0,3.604,2.088,5.691,5.691,5.691
	h16.318c3.793-0.189,5.691-2.088,5.691-5.881V49.328z"/>
<path d="M280.086,50.467c-3.793,0.76-5.691-0.949-6.26-4.742c-1.328-7.779-7.59-12.713-16.508-12.713
	c-7.398,0-11.951,4.363-11.191,8.729c2.654,14.799,62.611,14.418,62.611,58.057c0,5.691-6.453,39.273-51.419,39.273
	c-39.841,0-48.378-26.184-49.328-40.982c-0.189-3.414,1.52-5.502,4.934-6.26l21.439-4.744c3.794-0.758,5.88,0.949,6.261,4.934
	c0.758,9.107,7.777,14.42,16.693,14.42c9.297,0,16.127-5.502,14.99-10.625c-3.605-16.127-60.712-12.521-60.712-56.16
	c-0.189-5.691,3.225-39.273,45.722-39.273c39.083,0,48.193,25.424,49.332,39.084c0.189,3.416-1.518,5.502-4.936,6.262
	L280.086,50.467z"/>
<path d="M345.337,3.414c3.604,0,5.691,2.088,5.691,5.692v47.433c0,3.604,2.088,5.691,5.691,5.691h18.215
	c3.795,0,5.691-2.088,5.691-5.691V9.106c0-3.604,2.086-5.692,5.691-5.692h21.25c3.795,0,5.692,1.898,5.692,5.692v121.427
	c0,3.604-1.896,5.691-5.692,5.691h-21.25c-3.605,0-5.691-2.088-5.691-5.691v-29.979c0-3.793-1.896-5.691-5.691-5.691H356.72
	c-3.604,0-5.691,1.898-5.691,5.691v29.979c0,3.604-1.896,5.691-5.691,5.691h-21.25c-3.605,0-5.691-2.088-5.691-5.691V9.106
	c0-3.794,1.896-5.692,5.691-5.692H345.337z"/>
<path d="M450.032,3.414c3.795,0,5.693,1.898,5.693,5.692V83.48c0,14.607,0.947,23.525,14.989,23.525
	c14.039,0,14.988-8.918,14.988-23.525V9.106c0-3.794,2.086-5.692,5.691-5.692h21.25c3.795,0,5.691,1.898,5.691,5.692v84.429
	c0,12.521-2.656,46.104-47.621,46.104c-44.967,0-47.623-33.582-47.623-46.104V9.106c0-3.794,2.088-5.692,5.693-5.692H450.032z"/>
</svg>
