<?xml version="1.0" encoding="utf-8"?>
<!-- Generator: Adobe Illustrator 16.0.0, SVG Export Plug-In . SVG Version: 6.00 Build 0)  -->
<!DOCTYPE svg PUBLIC "-//W3C//DTD SVG 1.1//EN" "http://www.w3.org/Graphics/SVG/1.1/DTD/svg11.dtd">
<svg version="1.1" id="Layer_1" xmlns="http://www.w3.org/2000/svg" xmlns:xlink="http://www.w3.org/1999/xlink" x="0px" y="0px"
	 width="150.896px" height="59.877px" viewBox="0 0 150.896 59.877" enable-background="new 0 0 150.896 59.877"
	 xml:space="preserve">
<g>
	<path d="M10.674,10.839c0.682,0.007,1.021,0.252,1.016,0.737c0.249,1.161,0.367,2.364,0.354,3.611l-0.473,8.314l-0.008,0.862
		c-0.025,2.52,0.372,5.979,1.19,10.377l-0.006,0.605c-0.007,0.709-0.213,1.111-0.619,1.205c-0.25-0.003-0.781,0.101-1.591,0.307
		c-0.205-0.173-0.561-0.405-1.07-0.695c-0.926-5.234-1.374-9.466-1.342-12.695l0.016-1.575c0.023-2.297,0.275-4.624,0.756-6.98
		c-0.108,0.001-0.203-0.396-0.285-1.188l-0.441-0.301c0.224,0.004,0.424-0.671,0.6-2.026c0.631-0.379,1.195-0.568,1.688-0.562
		L10.674,10.839z"/>
	<path d="M16.538,15.461c0.923,0.009,1.474,0.243,1.648,0.703l0.155,0.675c-0.008,0.691-0.743,1.159-2.209,1.403l-0.39-0.002
		c-1.066-0.082-1.598-0.41-1.592-0.986l-0.052-0.215l0.002-0.296c0.288-0.867,0.992-1.297,2.114-1.286L16.538,15.461z
		 M17.339,21.513c0.397,2.392,0.584,4.901,0.558,7.53l-0.016,1.575l-0.166,5.814c-0.298,0.194-0.735,0.346-1.311,0.458l-0.407,0.428
		l-0.055,0c-0.314-0.003-0.599-0.244-0.853-0.723c-0.003,0.225-0.041,0.336-0.112,0.336c-0.551-0.491-0.819-1.534-0.804-3.131
		l0.563-6.604c-0.062-0.872-0.085-2.206-0.068-3.999c0.016-1.509,0.548-2.257,1.597-2.247
		C16.986,20.957,17.343,21.144,17.339,21.513z"/>
	<path d="M24.294,8.483c0.753,0.099,1.128,0.267,1.126,0.51c0.166,1.339,0.239,2.983,0.219,4.93l-0.006,0.552
		c-0.025,2.576-0.193,5.104-0.506,7.586l6.212-1.93l1.657-0.199c0.844,0.009,1.478,0.217,1.905,0.625
		c-0.121,0.384-0.183,0.842-0.188,1.37l0.053,0.056c-0.813,0.673-2.17,1.279-4.07,1.817c-1.619,0.352-3.019,0.768-4.199,1.249
		c-0.369,0.159-0.821,0.437-1.354,0.835l-0.001,0.109c0.299,0.613,1.267,1.191,2.903,1.738c1.208,0.38,2.093,0.841,2.652,1.385
		l0.444,0.005c0.189,0,0.675,0.252,1.46,0.753c3.199,1.432,4.925,2.424,5.179,2.973l0,0.054c-0.116,0-0.214,0.394-0.294,1.183
		c-0.146,0.312-0.543,0.465-1.189,0.459l-0.743,0.275c-3.912-1.861-6.61-3.114-8.094-3.754c-0.885-0.341-1.636-0.579-2.254-0.711
		c-0.229,0.457-0.347,1.025-0.354,1.708l0.139,3.783c-0.008,0.752-0.188,1.273-0.541,1.557c-0.118,0.081-0.214,0.396-0.292,0.952
		l-0.852,0.342l-0.23,0.05c-0.671-0.176-1.1-0.345-1.286-0.51c-0.344-0.722-0.508-1.816-0.494-3.288l0.132-5.022l-0.041-1.345
		l-1.645-1.147l0.061-0.685l-0.208-0.811c0.004-0.477,0.693-1.137,2.065-1.986c0.233,0.004,0.437-4.205,0.609-12.62
		c0.114-1.544,0.234-2.313,0.36-2.312c0.533-0.363,1.01-0.542,1.433-0.537L24.294,8.483z"/>
	<path d="M47.398,25.606c0.208,0.775,0.31,1.377,0.305,1.809c-0.017,1.793-1.428,3.23-4.229,4.305l0,0.054
		c0.74,1.256,1.7,1.888,2.875,1.9c1.635,0.016,3.382-1.269,5.248-3.853c1.153-1.262,2.025-1.89,2.617-1.885l0.109,0.001l0.105,0.122
		l-0.006,0.552l-0.056,0.214c0.016,0.09,0.087,0.154,0.214,0.19c0.242,0.003,0.401-0.188,0.476-0.574l0.109,0.001l-0.002,0.054
		c-0.006,0.611-0.544,1.611-1.618,3c-0.192,0.321-0.324,0.673-0.401,1.058c-0.493,0.113-0.743,0.311-0.745,0.599
		c-1.031,1.65-2.532,2.807-4.505,3.47c-0.647,0.135-1.172,0.204-1.577,0.199l-0.552-0.006c-2.647-0.025-5.23-1.962-7.749-5.81
		l-0.227-4.366l0.004-0.403c0.018-1.785,0.608-2.892,1.77-3.321c1.254-0.688,2.353-1.027,3.294-1.017
		C44.734,21.919,46.248,23.154,47.398,25.606z M42.029,29.445c0.403,0.003,1.035-0.308,1.895-0.938
		c0.147-0.447,0.223-0.805,0.226-1.075c0.012-1.084-0.465-1.843-1.432-2.276l-0.416-0.057c-0.557-0.005-0.837,0.166-0.839,0.516
		c-0.202,0.358-0.306,0.877-0.313,1.559C41.139,28.242,41.433,28.999,42.029,29.445z"/>
	<path d="M68.134,11.572c0.826,0.008,1.41,0.426,1.751,1.255c-0.763,4.416-1.157,7.903-1.183,10.461l-0.022,2.316l0.741,0.06
		c1.597,0.016,3.362-0.214,5.297-0.687l0.916-0.045c0.826,0.007,1.234,0.407,1.226,1.195c-0.012,1.176-0.809,1.865-2.389,2.062
		c-0.702,0.182-2.514,0.371-5.431,0.566c-0.002,0.073-0.132,0.107-0.392,0.103l0.301,3.558c-0.004,0.493-0.121,0.932-0.35,1.317
		c0.257,0.314,0.384,0.747,0.379,1.295l-0.006,0.552c-0.014,1.237-0.148,1.901-0.41,1.988l-1.413-0.122
		c-0.161-0.001-0.356,0.122-0.581,0.371c-0.967-0.431-1.434-1.998-1.409-4.699c0.025-2.438-0.094-3.661-0.354-3.664
		c-0.329-0.353-1.475-0.54-3.44-0.56c-0.878-0.008-1.498-0.486-1.857-1.432l0.001-0.161c0.45-0.965,1.454-1.44,3.017-1.425
		c0.824,0.027,1.237,0.085,1.235,0.175c0.278,0.002,0.483-0.225,0.614-0.681l0.176-0.107l0.47,0.006l-0.06-0.728
		c0.031-3.124,0.394-7.152,1.09-12.091c0.48-0.597,1.098-0.891,1.851-0.884L68.134,11.572z"/>
	<path d="M78.53,15.175c0.625,0.292,0.938,0.526,0.938,0.695c-0.634,3.996-0.971,8.247-1.017,12.752l0.038,1.708
		c0.614-0.467,1.481-2.233,2.597-5.291c0.467-1.009,0.921-1.512,1.361-1.507c0.667-0.379,1.122-0.568,1.366-0.566l0.268,0.003
		c0.403,0.004,0.724,0.419,0.957,1.248c0.446,1.126,0.918,3.375,1.415,6.744c0.405,1.672,0.827,2.898,1.27,3.675
		c0.299,0.56,0.76,1.117,1.382,1.67l0,0.053c-0.464,0.658-0.958,1.107-1.481,1.346c-0.752-0.009-1.637-0.472-2.651-1.387
		c-0.585-0.696-1.065-1.685-1.438-2.961l-0.808-4.061c-0.562,0.712-1.429,2.508-2.597,5.387c-0.687,1.311-1.374,2.306-2.062,2.981
		l-0.391-0.004c-0.35-0.004-0.812-0.313-1.391-0.929l-0.522-0.274l0.06-0.523c0.004-0.513-0.154-1.224-0.477-2.132
		c0.089,0.001,0.218-3.955,0.386-11.87c0.236-2.977,0.508-4.989,0.813-6.036c0.477,0.005,0.797-0.203,0.963-0.623l0-0.054
		c0.33,0.165,0.59,0.249,0.777,0.25c0.091,0.002,0.136-0.097,0.138-0.293L78.53,15.175z"/>
	<path d="M93.072,16.221c0.923,0.009,1.473,0.244,1.648,0.704l0.155,0.675c-0.007,0.69-0.743,1.159-2.209,1.403L92.277,19
		c-1.068-0.083-1.598-0.412-1.593-0.986l-0.052-0.215l0.002-0.297c0.288-0.867,0.992-1.295,2.114-1.284L93.072,16.221z
		 M93.873,22.273c0.399,2.391,0.585,4.901,0.558,7.53l-0.016,1.575l-0.165,5.814c-0.297,0.195-0.734,0.347-1.311,0.457l-0.408,0.428
		l-0.054,0c-0.314-0.003-0.599-0.244-0.854-0.723c-0.002,0.225-0.04,0.336-0.111,0.336c-0.551-0.491-0.82-1.534-0.804-3.133
		l0.564-6.604c-0.064-0.87-0.085-2.204-0.068-3.998c0.015-1.507,0.548-2.256,1.599-2.245C93.52,21.717,93.877,21.904,93.873,22.273z
		"/>
	<path d="M103.162,23.577c1.309,0.013,2.033,0.342,2.169,0.99c0.237,0.604,0.354,1,0.352,1.188c-0.246,0.403-0.8,0.698-1.665,0.886
		c-2.597,0.378-3.896,0.716-3.899,1.012c0.38,0.632,1.337,1.176,2.878,1.631c2.694,0.645,4.644,1.271,5.851,1.875
		c1.113,0.692,1.665,1.599,1.655,2.722c-0.02,1.841-1.673,3.061-4.965,3.667c-0.962,0.159-1.864,0.236-2.709,0.229
		c-3.324-0.258-4.987-0.661-4.98-1.207c-0.347-0.354-0.517-0.791-0.513-1.312l0.003-0.27c0.007-0.681,0.382-1.301,1.124-1.859
		c1.847,0.917,3.415,1.378,4.698,1.391c1.03,0.011,1.882-0.285,2.552-0.889l0-0.054c-0.956-0.54-2.806-1.154-5.554-1.846
		c-2.71-0.817-4.063-1.822-4.05-3.016l0.001-0.161c0.02-1.839,1.172-3.247,3.461-4.219c1.163-0.519,2.211-0.772,3.145-0.762
		L103.162,23.577z"/>
</g>
<g>
	<g>
		<path d="M149.785,18.545c-0.414-0.141-0.827-0.284-1.288-0.289c-3.146-2.715-6.15-5.634-9.792-8.291
			c-3.449-2.52-7.769-4.136-10.173-6.728c-1.43-1.538-1.929-3.865-4.489-3.082c-0.76,0.581,0.002,1.902-0.021,2.304
			c-0.292,4.33-1.787,10.836-2.628,15.741c-0.492,2.842-2.32,8.688,2.419,7.766c0.552-4.429,2.402-9.071,6.926-11.646
			c2.585,6.241,2.906,17.48,0.154,24.248c-1.483,3.65-4.827,5.904-8.271,7.484c-6.265,2.873-14.506,4.98-21.346,5.621
			c-5.805,0.543-13.873-1.117-17.754-4.398c-0.859,0.256-1.372,0.518-1.852,0.904c-0.055,1.002,0.494,1.969,1.173,2.869
			c8.493,4.816,19.512,4.141,30.223,1.742c3.346-0.746,7.457-1.799,10.358-3.688c0.083,0.35,0.316,0.275,0.551,0.189
			c-0.034-0.129-0.105-0.141-0.194-0.125c11.264-3.557,11.073-14.543,11.742-23.188c0.112-1.452,0.246-2.627,0.126-3.964
			c-0.1-1.185-0.54-2.336-0.612-3.602c-0.027-0.407,0.565-0.973,0.382-1.562c-0.474-1.555-0.859-2.324-0.795-3.971
			c0.016-0.418,0.597-1.286-0.074-2.029c4.646,2.634,9.437,7.174,13.359,11.367c0.945-0.043,1.718,0.384,2.862-0.252
			C151.252,20.782,150.226,19.937,149.785,18.545z M130.784,9.251c-1.329,2.112-4.219,3.574-5.761,5.11
			c0.732-2.882,0.937-5.944,1.646-8.834c1.133,2.161,4.349,2.271,4.666,3.913C131.194,9.25,130.988,9.255,130.784,9.251z"/>
	</g>
</g>
</svg>
