<?xml version="1.0" encoding="utf-8"?>
<!-- Generator: Adobe Illustrator 16.0.0, SVG Export Plug-In . SVG Version: 6.00 Build 0)  -->
<!DOCTYPE svg PUBLIC "-//W3C//DTD SVG 1.1//EN" "http://www.w3.org/Graphics/SVG/1.1/DTD/svg11.dtd">
<svg version="1.1" id="Layer_1" xmlns="http://www.w3.org/2000/svg" xmlns:xlink="http://www.w3.org/1999/xlink" x="0px" y="0px"
	 width="265px" height="315px" viewBox="0 0 265 315" enable-background="new 0 0 265 315" xml:space="preserve">
<g id="Layer_1_1_">
</g>
<path fill="#FFFFFF" d="M199.984,124.656h-41.554v33.039H20.736v41.295h137.694v27.578c0,14.801-12.118,26.842-27.011,26.842
	s-27.01-12.041-27.01-26.842v-6.934H62.855v6.934c0,37.566,30.76,68.135,68.564,68.135s68.564-30.568,68.564-68.135V198.99h44.197
	v-41.295h-44.197V124.656z"/>
<rect x="158.431" y="20.996" fill="#FFFFFF" width="41.554" height="21.074"/>
<polygon fill="#FFFFFF" points="104.41,20.996 62.855,20.996 62.855,62.716 20.736,62.716 20.736,104.01 62.855,104.01 
	62.855,137.045 104.41,137.045 104.41,104.01 244.182,104.01 244.182,62.716 104.41,62.716 "/>
</svg>
