<?xml version="1.0" encoding="utf-8"?>
<!-- Generator: Adobe Illustrator 16.0.0, SVG Export Plug-In . SVG Version: 6.00 Build 0)  -->
<!DOCTYPE svg PUBLIC "-//W3C//DTD SVG 1.1//EN" "http://www.w3.org/Graphics/SVG/1.1/DTD/svg11.dtd">
<svg version="1.1" id="Layer_1" xmlns="http://www.w3.org/2000/svg" xmlns:xlink="http://www.w3.org/1999/xlink" x="0px" y="0px"
	 width="373.689px" height="227.535px" viewBox="0 0 373.689 227.535" enable-background="new 0 0 373.689 227.535"
	 xml:space="preserve">
<g>
	<g>
		<path fill="#5D98A8" d="M36.139,141.58c1.062,0,1.994,0.398,2.793,1.197c0.797,0.797,1.195,1.729,1.195,2.793v76.836
			c0,1.064-0.398,1.994-1.195,2.793c-0.799,0.797-1.73,1.197-2.793,1.197c-1.141,0-2.109-0.4-2.908-1.197
			c-0.797-0.799-1.197-1.729-1.197-2.793v-29.641H8.094v29.641c0,1.064-0.398,1.994-1.197,2.793
			c-0.797,0.797-1.766,1.197-2.906,1.197c-1.066,0-1.996-0.4-2.793-1.197C0.398,224.4,0,223.471,0,222.406V145.57
			c0-1.064,0.398-1.996,1.197-2.793c0.797-0.799,1.727-1.197,2.793-1.197c1.141,0,2.109,0.398,2.906,1.197
			c0.799,0.797,1.197,1.729,1.197,2.793v39.102h23.939V145.57c0-1.064,0.4-1.996,1.197-2.793
			C34.029,141.979,34.998,141.58,36.139,141.58z"/>
		<path fill="#5D98A8" d="M91.543,222.861c0.227,1.064,0.037,2.035-0.57,2.906c-0.609,0.873-1.408,1.426-2.395,1.653h-0.684
			c-0.838,0-1.615-0.285-2.338-0.854c-0.723-0.57-1.158-1.271-1.311-2.109l-3.078-14.818H62.701l-2.965,14.818
			c-0.152,0.838-0.59,1.539-1.311,2.109c-0.723,0.569-1.539,0.854-2.451,0.854H55.29c-0.988-0.229-1.768-0.78-2.338-1.653
			c-0.57-0.871-0.74-1.842-0.514-2.906l15.848-78.773c0.074-0.303,0.15-0.494,0.227-0.57v-0.113v-0.114
			c0.152-0.379,0.342-0.646,0.57-0.797v-0.229h0.115v-0.113h0.113v-0.114h0.113v-0.113h0.115c0.15-0.151,0.303-0.267,0.455-0.342
			c0.152-0.075,0.342-0.152,0.57-0.229v-0.113h0.113c0.152-0.074,0.322-0.114,0.514-0.114c0.189,0,0.359-0.037,0.514-0.113h0.113
			h0.229h0.113c0.152,0.076,0.322,0.113,0.514,0.113c0.188,0,0.359,0.04,0.512,0.114h0.115v0.113
			c0.303,0.076,0.531,0.153,0.684,0.229c0.152,0.075,0.303,0.19,0.455,0.342h0.115v0.113h0.113v0.114h0.115v0.113l0.113,0.229
			c0.074,0.151,0.172,0.284,0.285,0.397c0.113,0.114,0.209,0.248,0.285,0.398v0.115v0.113c0.074,0.075,0.113,0.268,0.113,0.569
			L91.543,222.861z M79.686,202.229l-7.865-38.533l-7.639,38.533H79.686z"/>
		<path fill="#5D98A8" d="M121.41,226.852c-5.322,0-9.805-1.52-13.453-4.561c-1.443-1.215-2.869-3.059-4.275-5.527
			c-1.406-2.47-2.107-5.832-2.107-10.09c0-1.141,0.398-2.09,1.195-2.85c0.799-0.76,1.768-1.141,2.908-1.141
			c1.062,0,1.975,0.381,2.736,1.141c0.758,0.76,1.139,1.709,1.139,2.85c0,2.508,0.361,4.561,1.084,6.156
			c0.721,1.596,1.652,2.832,2.793,3.705c1.141,0.874,2.412,1.48,3.818,1.824c1.406,0.342,2.793,0.512,4.162,0.512
			c0.758,0,1.842-0.094,3.248-0.284c1.406-0.188,2.793-0.702,4.162-1.539c1.367-0.835,2.564-2.052,3.59-3.647
			c1.025-1.596,1.539-3.838,1.539-6.727c0-2.811-0.398-5.281-1.197-7.41c-0.797-2.127-1.9-4.027-3.305-5.699
			c-1.408-1.672-3.021-3.211-4.846-4.616c-1.825-1.406-3.762-2.831-5.814-4.275c-1.824-1.291-3.668-2.659-5.529-4.104
			c-1.863-1.442-3.553-3.039-5.072-4.789c-3.574-4.178-5.396-9.006-5.473-14.478c0-0.303,0.018-0.911,0.057-1.823
			s0.172-1.977,0.4-3.192c0.684-3.875,2.203-7.104,4.559-9.688c3.42-3.572,8.018-5.357,13.795-5.357
			c5.852,0,10.373,1.785,13.566,5.357c1.139,1.293,2.051,2.774,2.736,4.444c0.684,1.674,1.1,3.497,1.254,5.474
			c0.15,1.367,0.207,2.526,0.17,3.477c-0.039,0.951-0.096,1.502-0.17,1.652c-0.229,0.989-0.496,1.863-0.799,2.623
			c-0.381,0.608-0.838,1.141-1.367,1.596c-0.533,0.457-1.332,0.609-2.395,0.457c-1.064-0.152-1.824-0.551-2.279-1.197
			c-0.457-0.645-0.762-1.312-0.912-1.996c-0.229-0.835-0.268-1.709-0.115-2.621c0.152-1.062,0.152-2.09,0-3.078
			c-0.152-0.836-0.381-1.768-0.684-2.793c-0.305-1.025-0.799-1.955-1.482-2.793c-1.521-1.824-4.029-2.736-7.523-2.736
			c-3.496,0-6.119,0.988-7.865,2.965c-0.838,0.837-1.465,1.787-1.881,2.851c-0.42,1.063-0.705,2.015-0.855,2.851
			c-0.229,1.064-0.305,2.092-0.229,3.078v0.342c0,1.899,0.303,3.61,0.912,5.131c0.607,1.521,1.463,2.926,2.564,4.217
			c1.102,1.294,2.432,2.564,3.99,3.818c1.557,1.256,3.324,2.604,5.301,4.049c2.203,1.443,4.35,2.982,6.441,4.615
			c2.09,1.637,4.047,3.555,5.871,5.758c4.104,5.016,6.156,10.982,6.156,17.897c0,3.496-0.59,6.519-1.768,9.062
			c-1.18,2.548-2.736,4.638-4.674,6.271c-1.938,1.637-4.143,2.85-6.611,3.647C126.406,226.453,123.918,226.852,121.41,226.852z"/>
		<path fill="#5D98A8" d="M192.888,141.58c1.062,0,1.993,0.398,2.793,1.197c0.797,0.797,1.194,1.729,1.194,2.793v76.836
			c0,1.064-0.397,1.994-1.194,2.793c-0.8,0.797-1.73,1.197-2.793,1.197c-1.142,0-2.109-0.4-2.908-1.197
			c-0.797-0.799-1.197-1.729-1.197-2.793v-29.641h-23.939v29.641c0,1.064-0.398,1.994-1.197,2.793
			c-0.797,0.797-1.766,1.197-2.906,1.197c-1.066,0-1.996-0.4-2.793-1.197c-0.799-0.799-1.197-1.729-1.197-2.793V145.57
			c0-1.064,0.398-1.996,1.197-2.793c0.797-0.799,1.727-1.197,2.793-1.197c1.141,0,2.109,0.398,2.906,1.197
			c0.799,0.797,1.197,1.729,1.197,2.793v39.102h23.939V145.57c0-1.064,0.4-1.996,1.197-2.793
			C190.776,141.979,191.746,141.58,192.888,141.58z"/>
		<path fill="#5D98A8" d="M233.129,227.535c-5.7,0-10.187-1.823-13.453-5.473c-2.584-2.888-4.18-6.496-4.786-10.828
			c-0.229-1.369-0.343-2.547-0.343-3.535c0-0.986,0-1.67,0-2.053V167.57c0-1.064,0.397-1.996,1.195-2.793
			c0.799-0.799,1.729-1.197,2.793-1.197c1.141,0,2.108,0.398,2.907,1.197c0.798,0.797,1.197,1.729,1.197,2.793v38.191v0.342
			c0,0.076-0.02,0.494-0.057,1.254c-0.041,0.761,0.037,1.673,0.227,2.735c0.189,1.064,0.494,2.205,0.912,3.421
			c0.418,1.217,1.045,2.278,1.881,3.19c1.672,1.823,4.181,2.735,7.525,2.735c3.494,0,6.154-0.948,7.979-2.85
			c0.836-0.912,1.482-1.918,1.939-3.021c0.455-1.101,0.758-2.184,0.912-3.248c0.227-1.141,0.303-2.317,0.227-3.534v-0.343v-38.762
			c0-1.141,0.4-2.108,1.197-2.906c0.799-0.799,1.768-1.196,2.908-1.196c1.062,0,1.994,0.397,2.793,1.196
			c0.797,0.798,1.195,1.767,1.195,2.906v38.762c0,0.306-0.021,0.933-0.057,1.882c-0.039,0.95-0.171,2.071-0.398,3.362
			c-0.684,4.182-2.32,7.64-4.902,10.375C243.576,225.712,238.979,227.535,233.129,227.535z"/>
		<path fill="#5D98A8" d="M318.855,222.406c0,1.064-0.382,1.994-1.142,2.793c-0.76,0.797-1.709,1.197-2.85,1.197
			c-1.064,0-1.994-0.4-2.793-1.197c-0.799-0.799-1.197-1.729-1.197-2.793v-60.078l-12.996,25.422
			c-0.381,1.064-1.025,1.824-1.938,2.279c-0.762,0.305-1.369,0.457-1.824,0.457c-0.381,0-0.703-0.038-0.969-0.115
			c-0.269-0.074-0.553-0.188-0.855-0.342c-0.988-0.455-1.672-1.215-2.053-2.279l-12.881-25.422v60.078
			c0,1.064-0.398,1.994-1.197,2.793c-0.799,0.797-1.73,1.197-2.793,1.197c-1.141,0-2.109-0.4-2.906-1.197
			c-0.799-0.799-1.197-1.729-1.197-2.793V145.57v-0.229v-0.114v-0.113c0.074,0,0.113-0.037,0.113-0.113v-0.114v-0.228
			c0.074-0.152,0.189-0.457,0.342-0.912l0.115-0.114v-0.114l0.113-0.113v-0.114c0.074,0,0.113-0.037,0.113-0.113
			c0.151-0.151,0.246-0.266,0.285-0.342c0.036-0.075,0.133-0.151,0.284-0.229l0.115-0.112c0-0.075,0.037-0.115,0.112-0.115h0.113
			v-0.112h0.115c0-0.074,0.037-0.113,0.113-0.113h0.113v-0.115h0.115h0.112c0-0.074,0.037-0.113,0.115-0.113
			c0.073,0,0.112-0.018,0.112-0.057c0-0.038,0.037-0.059,0.113-0.059h0.115l0.113-0.113h0.113h0.114h0.113
			c0-0.074,0.037-0.113,0.112-0.113h0.115h0.229h0.228h0.114h0.113h0.112h0.115h0.113h0.113h0.115h0.112l0.115,0.113
			c0.303,0,0.606,0.076,0.912,0.229c0.073,0.076,0.149,0.113,0.227,0.113c0,0.076,0.037,0.115,0.115,0.115l0.112,0.113
			c0.074,0,0.152,0.038,0.229,0.112c0.228,0.229,0.416,0.382,0.57,0.457c0,0.076,0.036,0.113,0.112,0.113v0.114l0.113,0.113v0.113
			c0.076,0,0.115,0.04,0.115,0.115l0.113,0.113v0.113l0.113,0.114l17.215,33.744l17.215-33.744v-0.114l0.112-0.113v-0.113h0.113
			v-0.115l0.115-0.113c0-0.074,0.037-0.113,0.113-0.113v-0.114c0.303-0.304,0.53-0.493,0.684-0.57c0-0.074,0.037-0.112,0.115-0.112
			h0.113c0-0.074,0.036-0.113,0.112-0.113v-0.115h0.115h0.113c0-0.074,0.037-0.113,0.112-0.113c0.076-0.074,0.173-0.113,0.285-0.113
			c0.115,0,0.246-0.037,0.4-0.115h0.113h0.112c0-0.073,0.039-0.112,0.115-0.112h0.113h0.115h0.112h0.113h0.229h0.229h0.227h0.115
			h0.113h0.115v0.112h0.112h0.113h0.115h0.113v0.115h0.229l0.113,0.113h0.113l0.114,0.113h0.229v0.115h0.112v0.113h0.113
			l0.115,0.112c0.074,0,0.113,0.04,0.113,0.115h0.112l0.115,0.112c0.15,0.076,0.303,0.269,0.455,0.57
			c0.076,0,0.115,0.039,0.115,0.113l0.113,0.115v0.113l0.112,0.113l0.115,0.114c0.15,0.305,0.227,0.569,0.227,0.797v0.115h0.115
			v0.228V145v0.113v0.113v0.114v0.229v76.836H318.855z"/>
		<path fill="#5D98A8" d="M372.492,219.498c0.797,0.799,1.197,1.768,1.197,2.908c0,1.064-0.4,1.994-1.197,2.793
			c-0.799,0.797-1.769,1.197-2.908,1.197h-30.209c-1.141,0-2.109-0.4-2.908-1.197c-0.797-0.799-1.194-1.729-1.194-2.793V145.57
			c0-1.064,0.397-1.996,1.194-2.793c0.799-0.799,1.769-1.197,2.908-1.197h30.209c1.141,0,2.109,0.398,2.908,1.197
			c0.797,0.797,1.197,1.729,1.197,2.793c0,1.139-0.4,2.107-1.197,2.906c-0.799,0.799-1.769,1.196-2.908,1.196h-26.219v34.998h19.721
			c1.141,0,2.09,0.397,2.852,1.197c0.759,0.797,1.14,1.767,1.14,2.905c0,1.065-0.381,1.996-1.14,2.793
			c-0.762,0.8-1.711,1.197-2.852,1.197h-19.721V218.3h26.219C370.725,218.302,371.693,218.701,372.492,219.498z"/>
	</g>
	<g>
		<path fill="#5D98A8" d="M248.476,149.582H218.22c-1.066,0-1.996-0.379-2.794-1.141c-0.799-0.758-1.196-1.709-1.196-2.851
			c0-1.063,0.397-1.993,1.196-2.793c0.798-0.798,1.728-1.196,2.794-1.196h30.256c1.062,0,1.994,0.398,2.793,1.196
			c0.797,0.8,1.196,1.729,1.196,2.793c0,1.142-0.399,2.093-1.196,2.851C250.469,149.203,249.537,149.582,248.476,149.582z"/>
	</g>
</g>
<path fill="#5D98A8" d="M90.151,117.084c12.782,2.751,51.238,4.749,96.693,4.749c45.456,0,83.912-1.998,96.694-4.749H90.151z"/>
<path fill="#5D98A8" d="M270.672,28.071l6.92-9.229h4.615L293.166,4.23c0,0-5.363,1.873-38.726,3.067L254.33,0h-13.845l-0.118,7.714
	c-13.938,0.335-31.478,0.554-53.521,0.554c-22.121,0-39.705-0.22-53.668-0.557L133.059,0h-13.842l-0.113,7.292
	C85.871,6.098,80.523,4.23,80.523,4.23l12.113,14.612h3.887l7.648,9.229h14.613L118.6,40.196l-6.689-1.355v4.034H97.828v8.268h0.934
	l11.18,2.307h8.455l-0.91,59.217h17.303l-0.908-59.217h105.785l-0.91,59.217h17.305l-0.91-59.217h9.754l10.113-2.307h0.847v-8.268
	h-14.229v-4.034l-6.688,1.355l-0.188-12.125H270.672z M239.869,40.196l-6.688-1.355v4.034h-92.814v-4.034l-6.689,1.355
	l-0.186-12.125h106.564L239.869,40.196z"/>
</svg>
